<mxfile host="app.diagrams.net" modified="2023-09-20T08:17:13.996Z" agent="Mozilla/5.0 (Windows NT 10.0; Win64; x64) AppleWebKit/537.36 (KHTML, like Gecko) Chrome/111.0.0.0 Safari/537.36" version="21.7.2" etag="WFynIFIHQ1sM93KBvaF1" type="github">
  <diagram name="第 1 页" id="AKec-_jmiOljBUeG13I3">
    <mxGraphModel>
      <root>
        <mxCell id="0" />
        <mxCell id="1" parent="0" />
      </root>
    </mxGraphModel>
  </diagram>
</mxfile>
